<svg xmlns="http://www.w3.org/2000/svg" width="543.181pt" height="631.319pt" style="isolation:isolate" viewBox="247.728 99.67 543.181 631.319"><path fill="#FFF" d="m519 99.694.021-.024v.047l164.363 180.04L519.021 723.72v.114l-.021-.057-.021.057v-.114L354.616 279.757l164.363-180.04v-.047l.021.024Z"/><path fill="#FFF" d="M683.384 279.757 519.021 723.72v.114l-.021-.057-.021.057v-.114L354.616 279.757 518.979 99.67l164.405 180.087Z"/><path fill="#D1D1D1" d="M519 723.72v.114l-.021-.057-.021.057v-.114L354.595 279.757 518.958 99.67 519 723.72Z"/><linearGradient id="a" x1=".85355339" x2=".5850311" y1=".85355176" y2="-.10972072" gradientTransform="matrix(145.569 0 0 -552.653 373.431 730.844)" gradientUnits="userSpaceOnUse"><stop offset="0%" style="stop-color:#e2628c"/><stop offset="100%" style="stop-color:#f58c6c"/></linearGradient><path fill="url(#a)" d="M519 178.191 373.431 337.645 519 730.844V178.191Z"/><linearGradient id="b" x1=".85355339" x2="-.01598937" y1=".14644633" y2="2.16831296" gradientTransform="matrix(145.569 0 0 -552.653 519 730.844)" gradientUnits="userSpaceOnUse"><stop offset="0%" style="stop-color:#fdba8b"/><stop offset="100%" style="stop-color:#d75195"/></linearGradient><path fill="url(#b)" d="m519 178.191 145.569 159.454L519 730.844V178.191Z"/><path fill="#61D2F3" d="m708.655 211.666 82.254 199.625L519.637 730.99l189.018-519.324Z"/><path fill="#1F76BC" d="m329.981 211.52-82.253 199.625L519 730.844 329.981 211.52Z"/></svg>
